<svg xmlns="http://www.w3.org/2000/svg" viewBox="0 0 101.46 101.46"><defs><style>.cls-1{fill:#f34a28;}.cls-2{fill:#fff;fill-rule:evenodd;}</style></defs><title>Asset 3</title><g id="Layer_2" data-name="Layer 2"><g id="OBJECTS"><path class="cls-1" d="M101.46,52.37c0,34.84-15.89,49.09-50.73,49.09S0,87.21,0,52.37,15.89,0,50.73,0s50.73,17.53,50.73,52.37"/><path class="cls-2" d="M73.13,28.35A31.66,31.66,0,0,0,23.3,66.54L18.8,82.94l16.78-4.4a31.64,31.64,0,0,0,15.13,3.85h0a31.66,31.66,0,0,0,22.4-54M50.73,77h0a26.28,26.28,0,0,1-13.39-3.67l-1-.57-10,2.61,2.66-9.71-.62-1A26.32,26.32,0,1,1,50.73,77"/><path class="cls-2" d="M65.17,57.35c-.79-.4-4.68-2.31-5.4-2.57s-1.25-.39-1.78.4-2,2.57-2.51,3.1-.92.59-1.71.2a21.64,21.64,0,0,1-6.36-3.92A23.82,23.82,0,0,1,43,49.06c-.46-.79-.05-1.22.35-1.61s.79-.92,1.19-1.39a5.41,5.41,0,0,0,.79-1.32,1.46,1.46,0,0,0-.07-1.39c-.2-.39-1.78-4.29-2.44-5.87S41.52,36.15,41,36.13s-1,0-1.52,0a2.91,2.91,0,0,0-2.11,1,8.87,8.87,0,0,0-2.77,6.6c0,3.89,2.83,7.65,3.23,8.18s5.58,8.52,13.51,11.94a45.34,45.34,0,0,0,4.51,1.67,10.86,10.86,0,0,0,5,.31c1.52-.23,4.68-1.91,5.34-3.76a6.6,6.6,0,0,0,.46-3.76c-.2-.33-.72-.53-1.52-.92"/></g></g></svg>