<svg xmlns="http://www.w3.org/2000/svg" viewBox="0 0 101.46 101.46"><defs><style>.cls-1{fill:#f34a28;}.cls-2{fill:#fff;}</style></defs><title>Asset 4</title><g id="Layer_2" data-name="Layer 2"><g id="OBJECTS"><path class="cls-1" d="M101.46,52.37c0,34.84-15.89,49.09-50.73,49.09S0,87.21,0,52.37,15.89,0,50.73,0s50.73,17.53,50.73,52.37"/><path class="cls-2" d="M50.73,23.84c8.76,0,9.8,0,13.26.19a18.12,18.12,0,0,1,6.09,1.13,10.87,10.87,0,0,1,6.23,6.23,18.16,18.16,0,0,1,1.13,6.09c.16,3.46.19,4.5.19,13.26s0,9.8-.19,13.26a18.17,18.17,0,0,1-1.13,6.09,10.87,10.87,0,0,1-6.23,6.23A18.12,18.12,0,0,1,64,77.44c-3.46.16-4.5.19-13.26.19s-9.8,0-13.26-.19a18.12,18.12,0,0,1-6.09-1.13,10.87,10.87,0,0,1-6.23-6.23A18.17,18.17,0,0,1,24,64c-.16-3.46-.19-4.5-.19-13.26s0-9.8.19-13.26a18.16,18.16,0,0,1,1.13-6.09,10.87,10.87,0,0,1,6.23-6.23A18.12,18.12,0,0,1,37.47,24c3.46-.16,4.5-.19,13.26-.19m0-5.91c-8.91,0-10,0-13.53.2a24,24,0,0,0-8,1.53,16.77,16.77,0,0,0-9.59,9.59,24,24,0,0,0-1.52,8c-.16,3.5-.2,4.62-.2,13.53s0,10,.2,13.53a24,24,0,0,0,1.52,8,16.78,16.78,0,0,0,9.59,9.6,24.08,24.08,0,0,0,8,1.52c3.5.16,4.62.2,13.53.2s10,0,13.53-.2a24.09,24.09,0,0,0,8-1.52,16.78,16.78,0,0,0,9.59-9.6,24,24,0,0,0,1.52-8c.16-3.5.2-4.62.2-13.53s0-10-.2-13.53a24,24,0,0,0-1.52-8,16.77,16.77,0,0,0-9.59-9.59,24.06,24.06,0,0,0-8-1.53c-3.5-.16-4.62-.2-13.53-.2"/><path class="cls-2" d="M50.73,33.88A16.85,16.85,0,1,0,67.58,50.73,16.85,16.85,0,0,0,50.73,33.88m0,27.78A10.94,10.94,0,1,1,61.67,50.73,10.94,10.94,0,0,1,50.73,61.67"/><path class="cls-2" d="M72.18,33.22a3.94,3.94,0,1,1-3.94-3.94,3.94,3.94,0,0,1,3.94,3.94"/></g></g></svg>